<svg width="18" height="20" viewBox="0 0 18 20" fill="none" xmlns="http://www.w3.org/2000/svg">
<path d="M15.75 0.25H2.25C1.85218 0.25 1.47064 0.408035 1.18934 0.68934C0.908035 0.970644 0.75 1.35218 0.75 1.75V18.25C0.75 18.6478 0.908035 19.0294 1.18934 19.3107C1.47064 19.592 1.85218 19.75 2.25 19.75H15.75C16.1478 19.75 16.5294 19.592 16.8107 19.3107C17.092 19.0294 17.25 18.6478 17.25 18.25V1.75C17.25 1.35218 17.092 0.970644 16.8107 0.68934C16.5294 0.408035 16.1478 0.25 15.75 0.25ZM9 13C9.2225 13 9.44001 13.066 9.62502 13.1896C9.81002 13.3132 9.95422 13.4889 10.0394 13.6945C10.1245 13.9 10.1468 14.1262 10.1034 14.3445C10.06 14.5627 9.95283 14.7632 9.79549 14.9205C9.63816 15.0778 9.4377 15.185 9.21948 15.2284C9.00125 15.2718 8.77505 15.2495 8.56948 15.1644C8.36391 15.0792 8.18821 14.935 8.0646 14.75C7.94098 14.565 7.875 14.3475 7.875 14.125C7.875 13.8266 7.99353 13.5405 8.2045 13.3295C8.41548 13.1185 8.70163 13 9 13ZM8.25 10.75V5.5C8.25 5.30109 8.32902 5.11032 8.46967 4.96967C8.61032 4.82902 8.80109 4.75 9 4.75C9.19891 4.75 9.38968 4.82902 9.53033 4.96967C9.67098 5.11032 9.75 5.30109 9.75 5.5V10.75C9.75 10.9489 9.67098 11.1397 9.53033 11.2803C9.38968 11.421 9.19891 11.5 9 11.5C8.80109 11.5 8.61032 11.421 8.46967 11.2803C8.32902 11.1397 8.25 10.9489 8.25 10.75Z" fill="#D3483E"/>
</svg>
