<svg width="18" height="15" viewBox="0 0 18 15" fill="none" xmlns="http://www.w3.org/2000/svg">
<path d="M16.875 13.625H15.75V8.5625L15.9145 8.72703C16.0203 8.83258 16.1636 8.8918 16.313 8.89167C16.4624 8.89154 16.6056 8.83206 16.7112 8.72633C16.8167 8.62059 16.8759 8.47726 16.8758 8.32786C16.8757 8.17846 16.8162 8.03523 16.7105 7.92969L9.79523 1.01656C9.58428 0.805742 9.29824 0.687317 9 0.687317C8.70176 0.687317 8.41572 0.805742 8.20477 1.01656L1.28953 7.92969C1.18408 8.03523 1.12487 8.17835 1.12494 8.32755C1.125 8.47675 1.18433 8.61982 1.28988 8.72527C1.39543 8.83073 1.53855 8.88993 1.68775 8.88987C1.83695 8.8898 1.98001 8.83047 2.08547 8.72492L2.25 8.5625V13.625H1.125C0.975816 13.625 0.832742 13.6843 0.727252 13.7898C0.621763 13.8952 0.5625 14.0383 0.5625 14.1875C0.5625 14.3367 0.621763 14.4798 0.727252 14.5852C0.832742 14.6907 0.975816 14.75 1.125 14.75H16.875C17.0242 14.75 17.1673 14.6907 17.2727 14.5852C17.3782 14.4798 17.4375 14.3367 17.4375 14.1875C17.4375 14.0383 17.3782 13.8952 17.2727 13.7898C17.1673 13.6843 17.0242 13.625 16.875 13.625ZM10.6875 13.625H7.3125V10.25C7.3125 10.1754 7.34213 10.1039 7.39488 10.0511C7.44762 9.99838 7.51916 9.96875 7.59375 9.96875H10.4062C10.4808 9.96875 10.5524 9.99838 10.6051 10.0511C10.6579 10.1039 10.6875 10.1754 10.6875 10.25V13.625Z" fill="#FBFBFB"/>
</svg>
