<svg width="18" height="18" viewBox="0 0 18 18" fill="none" xmlns="http://www.w3.org/2000/svg">
<path d="M15.75 10.6875V13.5C15.75 13.7984 15.6315 14.0845 15.4205 14.2955C15.2095 14.5065 14.9234 14.625 14.625 14.625H3.375C3.07663 14.625 2.79048 14.5065 2.5795 14.2955C2.36853 14.0845 2.25 13.7984 2.25 13.5V10.6875C2.25 10.3891 2.36853 10.103 2.5795 9.892C2.79048 9.68103 3.07663 9.5625 3.375 9.5625H14.625C14.9234 9.5625 15.2095 9.68103 15.4205 9.892C15.6315 10.103 15.75 10.3891 15.75 10.6875ZM14.625 3.375H3.375C3.07663 3.375 2.79048 3.49353 2.5795 3.7045C2.36853 3.91548 2.25 4.20163 2.25 4.5V7.3125C2.25 7.61087 2.36853 7.89702 2.5795 8.108C2.79048 8.31897 3.07663 8.4375 3.375 8.4375H14.625C14.9234 8.4375 15.2095 8.31897 15.4205 8.108C15.6315 7.89702 15.75 7.61087 15.75 7.3125V4.5C15.75 4.20163 15.6315 3.91548 15.4205 3.7045C15.2095 3.49353 14.9234 3.375 14.625 3.375Z" fill="#222222"/>
</svg>
