<svg width="19" height="18" viewBox="0 0 19 18" fill="none" xmlns="http://www.w3.org/2000/svg">
<path d="M13.9309 13.7004C13.9999 13.7824 14.044 13.8824 14.0581 13.9887C14.0721 14.095 14.0556 14.203 14.0103 14.3002C13.965 14.3973 13.8929 14.4795 13.8025 14.537C13.712 14.5946 13.6071 14.6251 13.4999 14.625H1.68737C1.58024 14.625 1.47536 14.5944 1.38504 14.5368C1.29472 14.4792 1.22272 14.397 1.17752 14.2998C1.13232 14.2027 1.1158 14.0947 1.12989 13.9885C1.14398 13.8823 1.18809 13.7824 1.25706 13.7004C2.30752 12.4502 3.61393 11.5622 5.06588 11.0869C4.1841 10.5377 3.50517 9.71622 3.13182 8.74679C2.75847 7.77737 2.71101 6.71272 2.99662 5.71392C3.28223 4.71512 3.88537 3.83651 4.71479 3.21102C5.54421 2.58553 6.55478 2.24719 7.59362 2.24719C8.63245 2.24719 9.64303 2.58553 10.4724 3.21102C11.3019 3.83651 11.905 4.71512 12.1906 5.71392C12.4762 6.71272 12.4288 7.77737 12.0554 8.74679C11.6821 9.71622 11.0031 10.5377 10.1214 11.0869C11.5733 11.5622 12.8797 12.4502 13.9309 13.7004ZM17.9422 10.8281C17.8928 10.9138 17.8216 10.9848 17.736 11.0342C17.6503 11.0836 17.5531 11.1095 17.4542 11.1094C17.3555 11.1097 17.2584 11.0837 17.173 11.0341L16.8446 10.8443C16.6875 10.9791 16.5068 11.0838 16.3117 11.153V11.5313C16.3117 11.6804 16.2524 11.8235 16.1469 11.929C16.0414 12.0345 15.8984 12.0938 15.7492 12.0938C15.6 12.0938 15.4569 12.0345 15.3514 11.929C15.2459 11.8235 15.1867 11.6804 15.1867 11.5313V11.153C14.9915 11.0838 14.8108 10.9791 14.6537 10.8443L14.3253 11.0341C14.2399 11.0837 14.1429 11.1097 14.0441 11.1094C13.9202 11.1094 13.7998 11.0686 13.7015 10.9932C13.6032 10.9178 13.5326 10.8121 13.5005 10.6924C13.4685 10.5728 13.4768 10.4459 13.5242 10.3315C13.5717 10.2171 13.6555 10.1215 13.7628 10.0596L14.0905 9.87047C14.0521 9.66696 14.0521 9.45805 14.0905 9.25454L13.7628 9.06539C13.6988 9.02846 13.6428 8.97928 13.5978 8.92067C13.5528 8.86206 13.5198 8.79517 13.5007 8.7238C13.4815 8.65244 13.4766 8.57801 13.4863 8.50476C13.4959 8.4315 13.5199 8.36087 13.5568 8.29688C13.5938 8.23289 13.6429 8.1768 13.7015 8.13182C13.7602 8.08684 13.8271 8.05384 13.8984 8.03471C13.9698 8.01558 14.0442 8.01069 14.1175 8.02032C14.1907 8.02996 14.2613 8.05393 14.3253 8.09086L14.6537 8.28071C14.8108 8.14589 14.9915 8.04124 15.1867 7.97204V7.59375C15.1867 7.44457 15.2459 7.3015 15.3514 7.19601C15.4569 7.09052 15.6 7.03125 15.7492 7.03125C15.8984 7.03125 16.0414 7.09052 16.1469 7.19601C16.2524 7.3015 16.3117 7.44457 16.3117 7.59375V7.97204C16.5068 8.04124 16.6875 8.14589 16.8446 8.28071L17.173 8.09086C17.237 8.05393 17.3076 8.02996 17.3809 8.02032C17.4541 8.01069 17.5286 8.01558 17.5999 8.03471C17.6713 8.05384 17.7382 8.08684 17.7968 8.13182C17.8554 8.1768 17.9046 8.23289 17.9415 8.29688C17.9784 8.36087 18.0024 8.4315 18.012 8.50476C18.0217 8.57801 18.0168 8.65244 17.9977 8.7238C17.9785 8.79517 17.9455 8.86206 17.9006 8.92067C17.8556 8.97928 17.7995 9.02846 17.7355 9.06539L17.4078 9.25454C17.4463 9.45805 17.4463 9.66696 17.4078 9.87047L17.7355 10.0596C17.7996 10.0965 17.8557 10.1456 17.9008 10.2042C17.9458 10.2628 17.9789 10.3297 17.9981 10.401C18.0173 10.4724 18.0223 10.5469 18.0127 10.6201C18.0031 10.6934 17.9791 10.7641 17.9422 10.8281ZM15.7499 10.125C15.8611 10.125 15.9699 10.092 16.0624 10.0302C16.1549 9.9684 16.227 9.88055 16.2696 9.77776C16.3121 9.67498 16.3233 9.56188 16.3016 9.45277C16.2799 9.34365 16.2263 9.24342 16.1476 9.16476C16.069 9.08609 15.9687 9.03252 15.8596 9.01081C15.7505 8.98911 15.6374 9.00025 15.5346 9.04282C15.4318 9.0854 15.344 9.15749 15.2822 9.25C15.2204 9.3425 15.1874 9.45125 15.1874 9.5625C15.1874 9.71169 15.2466 9.85476 15.3521 9.96025C15.4576 10.0657 15.6007 10.125 15.7499 10.125Z" fill="#222222"/>
</svg>
